<svg xmlns="http://www.w3.org/2000/svg" viewBox="0 0 120 120" width="600" height="600">
  <title>ARIA Pin Mark - Transparent background - for compositing</title>
  <circle cx="60" cy="60" r="58" fill="none" stroke="#6D3AF2" stroke-width="2.5"/>
  <g transform="translate(15,15) scale(0.9)">
    <path d="M 48.50 42.00 C 44.02 38.15 46.95 19.67 50.00 3.50 C 53.05 19.67 55.98 38.15 51.50 42.00 Q 50.00 46.00 48.50 42.00 Z M 54.60 43.28 C 54.15 37.39 69.29 26.40 82.88 17.12 C 73.60 30.71 62.61 45.85 56.72 45.40 Q 52.83 47.17 54.60 43.28 Z M 58.00 48.50 C 61.85 44.02 80.33 46.95 96.50 50.00 C 80.33 53.05 61.85 55.98 58.00 51.50 Q 54.00 50.00 58.00 48.50 Z M 56.72 54.60 C 62.61 54.15 73.60 69.29 82.88 82.88 C 69.29 73.60 54.15 62.61 54.60 56.72 Q 52.83 52.83 56.72 54.60 Z M 51.50 58.00 C 55.98 61.85 53.05 80.33 50.00 96.50 C 46.95 80.33 44.02 61.85 48.50 58.00 Q 50.00 54.00 51.50 58.00 Z M 45.40 56.72 C 45.85 62.61 30.71 73.60 17.12 82.88 C 26.40 69.29 37.39 54.15 43.28 54.60 Q 47.17 52.83 45.40 56.72 Z M 42.00 51.50 C 38.15 55.98 19.67 53.05 3.50 50.00 C 19.67 46.95 38.15 44.02 42.00 48.50 Q 46.00 50.00 42.00 51.50 Z M 43.28 45.40 C 37.39 45.85 26.40 30.71 17.12 17.12 C 30.71 26.40 45.85 37.39 45.40 43.28 Q 47.17 47.17 43.28 45.40 Z" fill="#FFFFFF"/>
    <circle cx="50" cy="50" r="6.8" fill="none"/>
    <circle cx="50" cy="50" r="6.8" fill="none" stroke="#6D3AF2" stroke-width="2.3"/>
  </g>
</svg>